<svg width="412" height="354" viewBox="0 0 412 354" fill="none" xmlns="http://www.w3.org/2000/svg">
<path fill-rule="evenodd" clip-rule="evenodd" d="M154.631 96.7191L220.933 221.418H238.07L163.196 80.5967C160.418 85.8252 157.557 91.2101 154.631 96.7191Z" fill="url(#paint0_linear_73_2058)"/>
<path d="M197.876 16.8658L306.73 221.418H323.966L265.318 111.01C233.081 50.277 206.629 0.58246 206.588 0.562018C206.574 0.554929 203.384 6.52695 197.876 16.8658Z" fill="url(#paint1_linear_73_2058)"/>
<path d="M315.818 206.079H97.3365L89.1899 221.418H323.967L315.818 206.079Z" fill="white"/>
<path d="M214.447 16.8658L105.593 221.418H88.3569L147.005 111.01C179.242 50.277 205.694 0.58246 205.735 0.562018C205.749 0.554929 208.94 6.52695 214.447 16.8658Z" fill="white"/>
<path d="M179.731 278.371L162.887 247.418H173.322L185.703 270.148L198.038 247.418H208.519L191.675 278.371H179.731Z" fill="url(#paint2_linear_73_2058)"/>
<path d="M226.138 247.418C216.014 247.418 211.101 247.418 210.439 254.939H242.631V247.418H226.138Z" fill="url(#paint3_linear_73_2058)"/>
<path d="M248.021 258.693C248.021 247.418 257.443 247.418 269.069 247.418C280.702 247.418 290.118 247.418 290.118 258.693V278.371H280.702V268.466L280.788 260.951C280.788 254.891 276.15 254.911 270.241 254.936C269.856 254.938 269.465 254.939 269.069 254.939C268.64 254.939 268.216 254.937 267.799 254.935C261.948 254.905 257.443 254.882 257.443 260.951V278.371H248.021V258.693Z" fill="url(#paint4_linear_73_2058)"/>
<path d="M293.441 247.418V254.939H330.639V247.418H293.441Z" fill="url(#paint5_linear_73_2058)"/>
<path fill-rule="evenodd" clip-rule="evenodd" d="M333.565 258.693C333.565 247.418 342.98 247.418 354.614 247.418C366.24 247.418 375.662 247.418 375.662 258.693V267.096C375.662 278.371 366.24 278.371 354.614 278.371C342.98 278.371 333.565 278.371 333.565 267.096V258.693ZM354.614 254.939C353.806 254.939 353.018 254.933 352.257 254.926C346.946 254.926 342.98 255.264 342.98 260.951V264.844C342.98 270.912 347.499 270.89 353.357 270.86C353.77 270.858 354.189 270.856 354.614 270.856C355.02 270.856 355.421 270.858 355.817 270.86C361.281 270.885 365.666 270.904 366.24 266.082V259.713C365.667 254.89 361.289 254.91 355.833 254.935C355.432 254.937 355.025 254.939 354.614 254.939Z" fill="url(#paint6_linear_73_2058)"/>
<path d="M210.353 268.863V259.137H242.631V266.658H219.768C219.899 270.857 220.814 270.857 225.923 270.856L242.631 270.856V278.371H226.138C215.173 278.371 210.353 278.371 210.353 268.863Z" fill="url(#paint7_linear_73_2058)"/>
<path d="M307.332 259.137V278.371H316.748V259.137H307.332Z" fill="url(#paint8_linear_73_2058)"/>
<path d="M36.6621 254.939V247.418H73.8528V254.939H36.6621Z" fill="white"/>
<path d="M77.5341 278.371V247.418H106.627C113.129 247.418 114.725 252.681 114.725 259.137C114.725 265.593 113.129 270.856 106.627 270.856H105.747L114.592 278.371H105.171L96.3248 270.856V263.341H103.092C105.435 263.341 105.661 261.481 105.661 259.137C105.661 256.793 105.435 254.939 103.092 254.939H86.9493V278.371H77.5341Z" fill="white"/>
<path d="M120.234 247.418V268.863C120.234 278.371 129.126 278.371 140.044 278.371L140.63 278.371C151.33 278.374 159.9 278.377 159.9 268.863V247.418H150.485V265.374C150.485 270.856 145.837 270.903 140.044 270.903C134.297 270.903 129.655 270.903 129.655 265.374V247.418H120.234Z" fill="white"/>
<path d="M50.5465 259.137V278.371H59.9684V259.137H50.5465Z" fill="white"/>
<path d="M11.5171 340.623C11.0371 340.623 10.6651 340.491 10.4011 340.227C10.1611 339.939 10.0411 339.543 10.0411 339.039V327.231L10.6891 329.283L1.65306 316.827C1.43706 316.515 1.32906 316.203 1.32906 315.891C1.35306 315.555 1.48506 315.279 1.72506 315.063C1.96506 314.847 2.27706 314.739 2.66106 314.739C2.99706 314.739 3.29706 314.823 3.56106 314.991C3.82506 315.135 4.06506 315.375 4.28106 315.711L11.9491 326.295H11.1931L18.8611 315.711C19.1251 315.351 19.3771 315.099 19.6171 314.955C19.8571 314.811 20.1451 314.739 20.4811 314.739C20.8651 314.739 21.1651 314.847 21.3811 315.063C21.5971 315.255 21.7051 315.519 21.7051 315.855C21.7291 316.167 21.6211 316.503 21.3811 316.863L12.3811 329.283L12.9931 327.231V339.039C12.9931 340.095 12.5011 340.623 11.5171 340.623ZM34.4403 340.695C32.0883 340.695 30.0363 340.167 28.2843 339.111C26.5563 338.031 25.2123 336.519 24.2523 334.575C23.3163 332.631 22.8483 330.327 22.8483 327.663C22.8483 325.647 23.1123 323.847 23.6403 322.263C24.1923 320.655 24.9723 319.299 25.9803 318.195C26.9883 317.067 28.2003 316.203 29.6163 315.603C31.0563 314.979 32.6643 314.667 34.4403 314.667C36.8403 314.667 38.9043 315.195 40.6323 316.251C42.3843 317.307 43.7283 318.807 44.6643 320.751C45.6243 322.671 46.1043 324.963 46.1043 327.627C46.1043 329.643 45.8283 331.455 45.2763 333.063C44.7243 334.671 43.9443 336.039 42.9363 337.167C41.9283 338.295 40.7043 339.171 39.2643 339.795C37.8483 340.395 36.2403 340.695 34.4403 340.695ZM34.4403 338.067C36.2643 338.067 37.8003 337.659 39.0483 336.843C40.3203 336.027 41.2923 334.839 41.9643 333.279C42.6363 331.719 42.9723 329.847 42.9723 327.663C42.9723 324.375 42.2283 321.831 40.7403 320.031C39.2763 318.207 37.1763 317.295 34.4403 317.295C32.6643 317.295 31.1403 317.703 29.8683 318.519C28.6203 319.335 27.6603 320.523 26.9883 322.083C26.3163 323.619 25.9803 325.479 25.9803 327.663C25.9803 330.927 26.7243 333.483 28.2123 335.331C29.7003 337.155 31.7763 338.067 34.4403 338.067ZM61.39 340.695C59.71 340.695 58.234 340.479 56.962 340.047C55.714 339.591 54.658 338.931 53.794 338.067C52.93 337.179 52.282 336.087 51.85 334.791C51.418 333.495 51.202 332.007 51.202 330.327V316.251C51.202 315.747 51.322 315.375 51.562 315.135C51.826 314.871 52.198 314.739 52.678 314.739C53.158 314.739 53.518 314.871 53.758 315.135C54.022 315.375 54.154 315.747 54.154 316.251V330.183C54.154 332.823 54.766 334.803 55.99 336.123C57.214 337.419 59.014 338.067 61.39 338.067C63.766 338.067 65.554 337.419 66.754 336.123C67.954 334.803 68.554 332.823 68.554 330.183V316.251C68.554 315.747 68.686 315.375 68.95 315.135C69.214 314.871 69.586 314.739 70.066 314.739C70.522 314.739 70.87 314.871 71.11 315.135C71.374 315.375 71.506 315.747 71.506 316.251V330.327C71.506 332.559 71.122 334.455 70.354 336.015C69.61 337.575 68.482 338.751 66.97 339.543C65.458 340.311 63.598 340.695 61.39 340.695ZM79.0494 340.623C78.5694 340.623 78.1974 340.491 77.9334 340.227C77.6934 339.939 77.5734 339.555 77.5734 339.075V316.503C77.5734 315.999 77.7054 315.627 77.9694 315.387C78.2334 315.123 78.6054 314.991 79.0854 314.991H87.6174C90.3294 314.991 92.4174 315.627 93.8814 316.899C95.3454 318.171 96.0774 319.983 96.0774 322.335C96.0774 323.823 95.7414 325.119 95.0694 326.223C94.4214 327.303 93.4614 328.131 92.1894 328.707C90.9174 329.259 89.3934 329.535 87.6174 329.535L87.9774 329.067H88.6974C89.6334 329.067 90.4494 329.307 91.1454 329.787C91.8414 330.267 92.4774 331.035 93.0534 332.091L96.5094 338.535C96.7014 338.871 96.7854 339.207 96.7614 339.543C96.7614 339.855 96.6534 340.119 96.4374 340.335C96.2214 340.527 95.9094 340.623 95.5014 340.623C95.0934 340.623 94.7574 340.527 94.4934 340.335C94.2294 340.143 94.0014 339.867 93.8094 339.507L89.8854 332.235C89.3334 331.203 88.6974 330.519 87.9774 330.183C87.2574 329.823 86.3094 329.643 85.1334 329.643H80.5254V339.075C80.5254 339.555 80.4054 339.939 80.1654 340.227C79.9254 340.491 79.5534 340.623 79.0494 340.623ZM80.5254 327.303H87.1854C89.1534 327.303 90.6414 326.895 91.6494 326.079C92.6574 325.239 93.1614 323.991 93.1614 322.335C93.1614 320.727 92.6574 319.515 91.6494 318.699C90.6414 317.859 89.1534 317.439 87.1854 317.439H80.5254V327.303ZM118.641 340.623C118.185 340.623 117.825 340.491 117.561 340.227C117.297 339.939 117.165 339.555 117.165 339.075V317.547H109.065C108.633 317.547 108.297 317.427 108.057 317.187C107.817 316.947 107.697 316.635 107.697 316.251C107.697 315.843 107.817 315.531 108.057 315.315C108.297 315.099 108.633 314.991 109.065 314.991H128.253C128.685 314.991 129.021 315.099 129.261 315.315C129.501 315.531 129.621 315.843 129.621 316.251C129.621 316.659 129.501 316.983 129.261 317.223C129.021 317.439 128.685 317.547 128.253 317.547H120.153V339.075C120.153 339.555 120.021 339.939 119.757 340.227C119.517 340.491 119.145 340.623 118.641 340.623ZM134.069 340.623C133.589 340.623 133.217 340.491 132.953 340.227C132.713 339.939 132.593 339.555 132.593 339.075V316.503C132.593 315.999 132.725 315.627 132.989 315.387C133.253 315.123 133.625 314.991 134.105 314.991H142.637C145.349 314.991 147.437 315.627 148.901 316.899C150.365 318.171 151.097 319.983 151.097 322.335C151.097 323.823 150.761 325.119 150.089 326.223C149.441 327.303 148.481 328.131 147.209 328.707C145.937 329.259 144.413 329.535 142.637 329.535L142.997 329.067H143.717C144.653 329.067 145.469 329.307 146.165 329.787C146.861 330.267 147.497 331.035 148.073 332.091L151.529 338.535C151.721 338.871 151.805 339.207 151.781 339.543C151.781 339.855 151.673 340.119 151.457 340.335C151.241 340.527 150.929 340.623 150.521 340.623C150.113 340.623 149.777 340.527 149.513 340.335C149.249 340.143 149.021 339.867 148.829 339.507L144.905 332.235C144.353 331.203 143.717 330.519 142.997 330.183C142.277 329.823 141.329 329.643 140.153 329.643H135.545V339.075C135.545 339.555 135.425 339.939 135.185 340.227C134.945 340.491 134.573 340.623 134.069 340.623ZM135.545 327.303H142.205C144.173 327.303 145.661 326.895 146.669 326.079C147.677 325.239 148.181 323.991 148.181 322.335C148.181 320.727 147.677 319.515 146.669 318.699C145.661 317.859 144.173 317.439 142.205 317.439H135.545V327.303ZM166.683 340.695C165.003 340.695 163.527 340.479 162.255 340.047C161.007 339.591 159.951 338.931 159.087 338.067C158.223 337.179 157.575 336.087 157.143 334.791C156.711 333.495 156.495 332.007 156.495 330.327V316.251C156.495 315.747 156.615 315.375 156.855 315.135C157.119 314.871 157.491 314.739 157.971 314.739C158.451 314.739 158.811 314.871 159.051 315.135C159.315 315.375 159.447 315.747 159.447 316.251V330.183C159.447 332.823 160.059 334.803 161.283 336.123C162.507 337.419 164.307 338.067 166.683 338.067C169.059 338.067 170.847 337.419 172.047 336.123C173.247 334.803 173.847 332.823 173.847 330.183V316.251C173.847 315.747 173.979 315.375 174.243 315.135C174.507 314.871 174.879 314.739 175.359 314.739C175.815 314.739 176.163 314.871 176.403 315.135C176.667 315.375 176.799 315.747 176.799 316.251V330.327C176.799 332.559 176.415 334.455 175.647 336.015C174.903 337.575 173.775 338.751 172.263 339.543C170.751 340.311 168.891 340.695 166.683 340.695ZM184.486 340.371C183.958 340.371 183.55 340.239 183.262 339.975C182.998 339.687 182.866 339.279 182.866 338.751V316.611C182.866 316.083 182.998 315.687 183.262 315.423C183.55 315.135 183.958 314.991 184.486 314.991H197.878C198.286 314.991 198.598 315.099 198.814 315.315C199.03 315.531 199.138 315.831 199.138 316.215C199.138 316.623 199.03 316.935 198.814 317.151C198.598 317.367 198.286 317.475 197.878 317.475H185.746V326.259H197.122C197.53 326.259 197.842 326.367 198.058 326.583C198.274 326.775 198.382 327.075 198.382 327.483C198.382 327.891 198.274 328.203 198.058 328.419C197.842 328.635 197.53 328.743 197.122 328.743H185.746V337.887H197.878C198.286 337.887 198.598 337.995 198.814 338.211C199.03 338.427 199.138 338.727 199.138 339.111C199.138 339.519 199.03 339.831 198.814 340.047C198.598 340.263 198.286 340.371 197.878 340.371H184.486ZM214.612 340.623C214.132 340.623 213.76 340.491 213.496 340.227C213.256 339.939 213.136 339.555 213.136 339.075V316.287C213.136 315.783 213.256 315.399 213.496 315.135C213.76 314.871 214.132 314.739 214.612 314.739C215.092 314.739 215.452 314.871 215.692 315.135C215.956 315.399 216.088 315.783 216.088 316.287V339.075C216.088 339.555 215.968 339.939 215.728 340.227C215.488 340.491 215.116 340.623 214.612 340.623ZM223.786 340.623C223.33 340.623 222.982 340.503 222.742 340.263C222.502 339.999 222.382 339.627 222.382 339.147V316.251C222.382 315.771 222.502 315.399 222.742 315.135C222.982 314.871 223.294 314.739 223.678 314.739C224.062 314.739 224.338 314.811 224.506 314.955C224.698 315.075 224.914 315.303 225.154 315.639L240.85 336.555H239.986V316.179C239.986 315.723 240.106 315.375 240.346 315.135C240.586 314.871 240.934 314.739 241.39 314.739C241.822 314.739 242.146 314.871 242.362 315.135C242.602 315.375 242.722 315.723 242.722 316.179V339.183C242.722 339.639 242.614 339.999 242.398 340.263C242.206 340.503 241.918 340.623 241.534 340.623C241.174 340.623 240.886 340.551 240.67 340.407C240.454 340.263 240.226 340.035 239.986 339.723L224.326 318.807H225.154V339.147C225.154 339.627 225.034 339.999 224.794 340.263C224.554 340.503 224.218 340.623 223.786 340.623ZM258.318 340.623C257.862 340.623 257.49 340.515 257.202 340.299C256.914 340.083 256.686 339.759 256.518 339.327L246.618 316.683C246.45 316.275 246.402 315.939 246.474 315.675C246.546 315.387 246.702 315.159 246.942 314.991C247.206 314.823 247.506 314.739 247.842 314.739C248.298 314.739 248.634 314.847 248.85 315.063C249.09 315.255 249.282 315.543 249.426 315.927L258.93 337.995H257.778L267.246 315.891C267.414 315.531 267.618 315.255 267.858 315.063C268.098 314.847 268.434 314.739 268.866 314.739C269.202 314.739 269.478 314.823 269.694 314.991C269.934 315.159 270.078 315.387 270.126 315.675C270.198 315.963 270.15 316.299 269.982 316.683L260.082 339.327C259.914 339.759 259.686 340.083 259.398 340.299C259.134 340.515 258.774 340.623 258.318 340.623ZM275.471 340.371C274.943 340.371 274.535 340.239 274.247 339.975C273.983 339.687 273.851 339.279 273.851 338.751V316.611C273.851 316.083 273.983 315.687 274.247 315.423C274.535 315.135 274.943 314.991 275.471 314.991H288.863C289.271 314.991 289.583 315.099 289.799 315.315C290.015 315.531 290.123 315.831 290.123 316.215C290.123 316.623 290.015 316.935 289.799 317.151C289.583 317.367 289.271 317.475 288.863 317.475H276.731V326.259H288.107C288.515 326.259 288.827 326.367 289.043 326.583C289.259 326.775 289.367 327.075 289.367 327.483C289.367 327.891 289.259 328.203 289.043 328.419C288.827 328.635 288.515 328.743 288.107 328.743H276.731V337.887H288.863C289.271 337.887 289.583 337.995 289.799 338.211C290.015 338.427 290.123 338.727 290.123 339.111C290.123 339.519 290.015 339.831 289.799 340.047C289.583 340.263 289.271 340.371 288.863 340.371H275.471ZM296.243 340.623C295.787 340.623 295.439 340.503 295.199 340.263C294.959 339.999 294.839 339.627 294.839 339.147V316.251C294.839 315.771 294.959 315.399 295.199 315.135C295.439 314.871 295.751 314.739 296.135 314.739C296.519 314.739 296.795 314.811 296.963 314.955C297.155 315.075 297.371 315.303 297.611 315.639L313.307 336.555H312.443V316.179C312.443 315.723 312.563 315.375 312.803 315.135C313.043 314.871 313.391 314.739 313.847 314.739C314.279 314.739 314.603 314.871 314.819 315.135C315.059 315.375 315.179 315.723 315.179 316.179V339.183C315.179 339.639 315.071 339.999 314.855 340.263C314.663 340.503 314.375 340.623 313.991 340.623C313.631 340.623 313.343 340.551 313.127 340.407C312.911 340.263 312.683 340.035 312.443 339.723L296.783 318.807H297.611V339.147C297.611 339.627 297.491 339.999 297.251 340.263C297.011 340.503 296.675 340.623 296.243 340.623ZM329.191 340.623C328.735 340.623 328.375 340.491 328.111 340.227C327.847 339.939 327.715 339.555 327.715 339.075V317.547H319.615C319.183 317.547 318.847 317.427 318.607 317.187C318.367 316.947 318.247 316.635 318.247 316.251C318.247 315.843 318.367 315.531 318.607 315.315C318.847 315.099 319.183 314.991 319.615 314.991H338.803C339.235 314.991 339.571 315.099 339.811 315.315C340.051 315.531 340.171 315.843 340.171 316.251C340.171 316.659 340.051 316.983 339.811 317.223C339.571 317.439 339.235 317.547 338.803 317.547H330.703V339.075C330.703 339.555 330.571 339.939 330.307 340.227C330.067 340.491 329.695 340.623 329.191 340.623ZM344.62 340.623C344.14 340.623 343.768 340.491 343.504 340.227C343.264 339.939 343.144 339.555 343.144 339.075V316.287C343.144 315.783 343.264 315.399 343.504 315.135C343.768 314.871 344.14 314.739 344.62 314.739C345.1 314.739 345.46 314.871 345.7 315.135C345.964 315.399 346.096 315.783 346.096 316.287V339.075C346.096 339.555 345.976 339.939 345.736 340.227C345.496 340.491 345.124 340.623 344.62 340.623ZM363.046 340.695C360.694 340.695 358.642 340.167 356.89 339.111C355.162 338.031 353.818 336.519 352.858 334.575C351.922 332.631 351.454 330.327 351.454 327.663C351.454 325.647 351.718 323.847 352.246 322.263C352.798 320.655 353.578 319.299 354.586 318.195C355.594 317.067 356.806 316.203 358.222 315.603C359.662 314.979 361.27 314.667 363.046 314.667C365.446 314.667 367.51 315.195 369.238 316.251C370.99 317.307 372.334 318.807 373.27 320.751C374.23 322.671 374.71 324.963 374.71 327.627C374.71 329.643 374.434 331.455 373.882 333.063C373.33 334.671 372.55 336.039 371.542 337.167C370.534 338.295 369.31 339.171 367.87 339.795C366.454 340.395 364.846 340.695 363.046 340.695ZM363.046 338.067C364.87 338.067 366.406 337.659 367.654 336.843C368.926 336.027 369.898 334.839 370.57 333.279C371.242 331.719 371.578 329.847 371.578 327.663C371.578 324.375 370.834 321.831 369.346 320.031C367.882 318.207 365.782 317.295 363.046 317.295C361.27 317.295 359.746 317.703 358.474 318.519C357.226 319.335 356.266 320.523 355.594 322.083C354.922 323.619 354.586 325.479 354.586 327.663C354.586 330.927 355.33 333.483 356.818 335.331C358.306 337.155 360.382 338.067 363.046 338.067ZM381.391 340.623C380.935 340.623 380.587 340.503 380.347 340.263C380.107 339.999 379.987 339.627 379.987 339.147V316.251C379.987 315.771 380.107 315.399 380.347 315.135C380.587 314.871 380.899 314.739 381.283 314.739C381.667 314.739 381.943 314.811 382.111 314.955C382.303 315.075 382.519 315.303 382.759 315.639L398.455 336.555H397.591V316.179C397.591 315.723 397.711 315.375 397.951 315.135C398.191 314.871 398.539 314.739 398.995 314.739C399.427 314.739 399.751 314.871 399.967 315.135C400.207 315.375 400.327 315.723 400.327 316.179V339.183C400.327 339.639 400.219 339.999 400.003 340.263C399.811 340.503 399.523 340.623 399.139 340.623C398.779 340.623 398.491 340.551 398.275 340.407C398.059 340.263 397.831 340.035 397.591 339.723L381.931 318.807H382.759V339.147C382.759 339.627 382.639 339.999 382.399 340.263C382.159 340.503 381.823 340.623 381.391 340.623ZM407.644 340.515C407.044 340.515 406.564 340.335 406.204 339.975C405.844 339.591 405.664 339.111 405.664 338.535C405.664 337.959 405.844 337.491 406.204 337.131C406.564 336.747 407.044 336.555 407.644 336.555C408.244 336.555 408.712 336.747 409.048 337.131C409.408 337.491 409.588 337.959 409.588 338.535C409.588 339.111 409.408 339.591 409.048 339.975C408.712 340.335 408.244 340.515 407.644 340.515Z" fill="white"/>
<defs>
<linearGradient id="paint0_linear_73_2058" x1="196.35" y1="80.5967" x2="196.35" y2="221.418" gradientUnits="userSpaceOnUse">
<stop stop-color="#67DED0"/>
<stop offset="0.59" stop-color="#4F98A5"/>
<stop offset="1" stop-color="#2F376A"/>
</linearGradient>
<linearGradient id="paint1_linear_73_2058" x1="260.921" y1="0.562012" x2="260.921" y2="221.418" gradientUnits="userSpaceOnUse">
<stop stop-color="#67DED0"/>
<stop offset="0.59" stop-color="#4F98A5"/>
<stop offset="1" stop-color="#2F376A"/>
</linearGradient>
<linearGradient id="paint2_linear_73_2058" x1="206.162" y1="247.418" x2="206.162" y2="278.371" gradientUnits="userSpaceOnUse">
<stop offset="0.205" stop-color="#4F98A5"/>
<stop offset="1" stop-color="#67DED0"/>
</linearGradient>
<linearGradient id="paint3_linear_73_2058" x1="206.162" y1="247.418" x2="206.162" y2="278.371" gradientUnits="userSpaceOnUse">
<stop offset="0.205" stop-color="#4F98A5"/>
<stop offset="1" stop-color="#67DED0"/>
</linearGradient>
<linearGradient id="paint4_linear_73_2058" x1="206.162" y1="247.418" x2="206.162" y2="278.371" gradientUnits="userSpaceOnUse">
<stop offset="0.205" stop-color="#4F98A5"/>
<stop offset="1" stop-color="#67DED0"/>
</linearGradient>
<linearGradient id="paint5_linear_73_2058" x1="206.162" y1="247.418" x2="206.162" y2="278.371" gradientUnits="userSpaceOnUse">
<stop offset="0.205" stop-color="#4F98A5"/>
<stop offset="1" stop-color="#67DED0"/>
</linearGradient>
<linearGradient id="paint6_linear_73_2058" x1="206.162" y1="247.418" x2="206.162" y2="278.371" gradientUnits="userSpaceOnUse">
<stop offset="0.205" stop-color="#4F98A5"/>
<stop offset="1" stop-color="#67DED0"/>
</linearGradient>
<linearGradient id="paint7_linear_73_2058" x1="206.162" y1="247.418" x2="206.162" y2="278.371" gradientUnits="userSpaceOnUse">
<stop offset="0.205" stop-color="#4F98A5"/>
<stop offset="1" stop-color="#67DED0"/>
</linearGradient>
<linearGradient id="paint8_linear_73_2058" x1="206.162" y1="247.418" x2="206.162" y2="278.371" gradientUnits="userSpaceOnUse">
<stop offset="0.205" stop-color="#4F98A5"/>
<stop offset="1" stop-color="#67DED0"/>
</linearGradient>
</defs>
</svg>
